<?xml version="1.0" encoding="UTF-8" standalone="no"?>
			<svg  viewBox="0 0 404.17214 123.04089" xmlns:sodipodi="http://sodipodi.sourceforge.net/DTD/sodipodi-0.dtd" xmlns:xlink="http://www.w3.org/1999/xlink">
				<defs id="defs4082"/>
				<metadata id="metadata4085">
				<cc:Work rdf:about="">
				<dc:format>image/svg+xml</dc:format>
				<dc:type rdf:resource="http://purl.org/dc/dcmitype/StillImage" />
				<dc:title></dc:title>
				</cc:Work>
				</metadata>
				<g transform="translate(-173.54813,-494.84589)" id="layer1">
				<path d="m 242.45897,595.62429 5.584,-10.58 c 25.2744,0.1958 50.5492,0.3919 75.8236,0.5877 21.16,-1.7634 22.3354,-29.0951 1.1754,-32.3276 l -43.4957,0 0.2939,-10.58 69.346,0.1505 0.073,10.2386 -8.5834,-0.103 c 16.1636,12.6372 7.347,40.2627 -15.2825,42.6138 l -84.9341,0 z" style="fill:#0000ff;fill-rule:evenodd;stroke:#000000;stroke-width:1.76680005;stroke-linecap:butt;stroke-linejoin:miter;stroke-dasharray:none" id="path3840" />
				<path d="m 321.22137,574.46429 -42.6138,0 c -39.6751,-5.8778 -28.2136,-50.843 -1.7634,-52.6061 l 73.78,0 0,9.992 -69.3717,0 c -18.5151,-0.8815 -27.6255,28.8012 -1.4696,32.328 l 41.4385,0.5877 0,9.6984 z" style="fill:#0000ff;fill-rule:evenodd;stroke:#000000;stroke-width:1.76680005;stroke-linecap:butt;stroke-linejoin:miter;stroke-dasharray:none" id="path3842" />
				<text x="414.12717" y="596.60406" id="text3844">
				<tspan font-size="37.0000" id="tspan3846" style="font-size:37px;font-family:'Square721 BT';fill:#808080">SPEC.</tspan>
				</text>
				<path d="m 209.31967,605.22319 -21.5018,-8.6011 c -6.8496,-4.9859 -8.7428,-12.3948 -7.1679,-21.5018 l 8.6011,-7.1679 c 1.9116,-18.019 4.4762,-30.8995 8.6011,-31.5361 l 0,-7.1679 c -6.5626,-2.5389 -6.1836,-10.0453 -4.2996,-18.6335 l 12.9007,0 12.9007,24.3682 18.6354,0 44.4368,-24.3682 1.435,-7.1679 7.166,1.4332 5.7347,0 14.3339,-4.2996 57.3394,0 28.6696,4.2996 64.5054,35.8376 c 8.1227,0.9548 16.2455,1.9115 24.3682,2.8664 4.7449,-3.308 10.4722,-4.7541 17.2022,-4.3015 -1.9336,5.249 -0.5317,8.4318 5.7347,8.6011 l 11.0461,1.0395 c 17.0072,2.6493 27.093,5.8837 37.7326,10.29 l 12.8602,17.3402 -1.4332,22.935 2.8664,2.8682 -20.0686,2.8665 0,5.7346 25.80151,-2.8682 0,-8.6011 -2.8665,-1.4332 1.4333,-22.935 c -3.82321,-5.2563 -7.64441,-10.5127 -11.46751,-15.769 l -8.6011,-7.166 c -13.8906,-4.6805 -28.666,-8.0786 -44.4368,-10.0343 -4.1727,-1.2419 -2.5942,-3.2344 2.8664,-5.7347 -10.2532,-2.9032 -21.1154,-3.0099 -32.9693,1.4332 l -10.0343,-1.4332 -68.8068,-37.2689 -32.9693,-4.3015 -55.9043,0 -22.9369,4.3015 -5.7328,-2.8683 -11.4675,2.8683 2.8664,5.7328 -40.1371,22.935 -13.6183,0 -12.185,-24.3682 -21.5018,0 -2.8664,22.935 7.1679,5.7347 -5.7347,7.166 -4.2996,27.2365 -7.1679,4.3015 c -3.5085,7.729 -3.9574,14.551 0,20.0685 l 8.6011,11.4675 21.5018,7.1661 2.8664,-4.2996 z" style="fill:#0000ff;fill-rule:evenodd" id="path3848" />
				<path d="m 385.33877,595.77049 0.2047,-63.8283 -35.3509,0 -0.2208,-10.3802 82.6948,0 0.2208,10.3802 -33.1421,0 -0.2046,63.8283 -14.2019,0 z" style="fill:#ff0000;fill-rule:evenodd;stroke:#000000;stroke-width:1.76680005;stroke-linecap:butt;stroke-linejoin:miter;stroke-dasharray:none" id="path3850" />
				<text x="212.60507" y="617.59918" id="text3852">
				<tspan font-size="19.0000" id="tspan3854" style="font-size:19px;font-family:'Square721 BT';fill:#666666">SERVICE TUNING</tspan>
				<tspan font-size="19.0000" id="tspan3856" style="font-size:19px;font-family:'Square721 BT';fill:#666666" />
				</text>
				</g>
			</svg>