<?xml version="1.0" standalone="no"?>
<!DOCTYPE svg PUBLIC "-//W3C//DTD SVG 20010904//EN"
 "http://www.w3.org/TR/2001/REC-SVG-20010904/DTD/svg10.dtd">
<svg version="1.0" xmlns="http://www.w3.org/2000/svg"
 width="1544.000000pt" height="1544.000000pt" viewBox="0 0 1544.000000 1544.000000"
 preserveAspectRatio="xMidYMid meet">
<metadata>
Created by potrace 1.11, written by Peter Selinger 2001-2013
</metadata>
<g transform="translate(0.000000,1544.000000) scale(0.100000,-0.100000)"
fill="#000000" stroke="none">
<path d="M8660 10748 c0 -10 -589 -13 -2913 -14 -1601 0 -2939 -3 -2972 -7
-33 -4 -71 -9 -85 -12 -14 -3 -43 -8 -65 -11 -22 -4 -85 -20 -140 -36 -55 -16
-104 -30 -110 -32 -5 -2 -19 -7 -30 -11 -11 -5 -42 -17 -70 -27 -107 -41 -346
-169 -353 -189 -2 -5 -9 -9 -16 -9 -8 0 -29 -13 -47 -30 -19 -16 -39 -30 -44
-30 -6 0 -17 -9 -25 -20 -8 -11 -17 -20 -21 -20 -20 0 -293 -265 -344 -335
-17 -22 -33 -42 -36 -45 -12 -10 -157 -226 -187 -280 -96 -169 -209 -442 -238
-575 -1 -5 -7 -30 -14 -55 -7 -25 -14 -56 -16 -70 -2 -14 -6 -34 -9 -46 -3
-12 -7 -39 -10 -60 -3 -21 -8 -44 -10 -51 -17 -50 -24 -386 -11 -508 13 -129
14 -133 41 -255 23 -104 23 -105 25 -107 2 -2 3 -6 4 -10 31 -122 130 -343
213 -473 100 -158 257 -337 393 -449 36 -30 67 -57 70 -61 21 -28 278 -183
407 -245 87 -42 166 -81 175 -86 10 -5 26 -9 36 -9 9 0 26 -6 37 -13 11 -7 40
-19 65 -26 25 -6 54 -16 65 -21 11 -5 40 -15 65 -21 25 -7 50 -14 55 -15 35
-10 184 -46 205 -50 13 -3 55 -12 92 -19 38 -8 72 -14 76 -14 4 1 9 0 12 -1 3
-1 14 -4 25 -7 11 -3 813 -6 1783 -7 l1762 -1 1 30 c3 164 -1 878 -5 882 -3 3
-125 7 -273 9 -147 2 -430 6 -628 9 -198 4 -369 6 -380 5 -11 -1 -24 -1 -30
-1 -72 2 -1192 19 -1745 26 -184 2 -346 7 -360 10 -14 2 -41 7 -60 10 -19 3
-62 12 -95 21 -33 8 -71 16 -84 19 -139 26 -413 153 -536 247 -57 44 -149 132
-190 183 -16 20 -34 42 -40 49 -63 75 -154 288 -169 396 -3 19 -8 46 -11 60
-12 54 -5 325 9 349 4 6 5 11 2 11 -2 0 0 15 5 33 6 17 12 45 14 60 9 65 135
361 164 387 4 3 20 25 36 50 88 131 214 258 350 351 120 82 308 165 416 184
18 3 35 8 39 10 3 2 35 7 70 11 58 7 3295 8 7096 3 l1411 -1 -3 -1022 c-1
-561 -4 -1023 -5 -1026 -1 -3 0 -9 1 -15 1 -5 2 -111 1 -235 -1 -124 -4 -807
-6 -1517 l-3 -1293 639 0 639 0 0 293 c2 823 17 4796 19 4808 1 4 565 7 1254
7 688 1 1285 1 1324 1 l73 1 -6 273 c-3 149 -7 337 -9 417 -2 80 -4 175 -4
213 l-1 67 -3380 0 c-2697 0 -3380 -3 -3380 -12z"/>
<path d="M3209 9026 c0 -23 -3 -81 -5 -131 -2 -49 -4 -99 -3 -110 0 -11 0 -24
0 -30 1 -12 -10 -398 -15 -558 -2 -68 0 -110 7 -114 15 -9 137 -9 137 0 0 5 5
5 11 1 14 -8 149 -11 149 -3 0 3 20 3 44 -1 25 -4 52 -3 60 2 9 5 16 5 16 1 0
-10 93 -9 109 1 6 4 11 4 11 -1 0 -4 24 -7 53 -5 28 1 57 2 62 2 6 0 34 -1 63
-2 28 -2 52 1 52 5 0 5 5 5 12 1 16 -10 318 -11 318 -1 0 5 5 5 11 1 14 -8
149 -11 149 -3 0 4 18 3 40 -1 26 -5 37 -4 33 3 -4 6 -1 7 6 2 17 -10 171 -12
171 -2 0 5 5 5 11 1 16 -10 129 -11 129 -1 0 4 8 4 18 0 9 -5 40 -7 67 -6 28
2 61 3 75 3 29 -1 190 0 205 1 6 0 30 -1 55 -2 25 -2 51 0 57 4 6 4 14 4 16 0
6 -10 89 -9 104 0 7 4 14 4 16 0 6 -10 89 -9 104 0 7 4 14 4 16 0 3 -5 63 -7
134 -5 70 1 133 3 138 3 6 0 30 -1 55 -2 25 -2 51 0 57 4 6 4 14 4 16 0 6 -10
89 -9 104 0 7 4 14 4 16 0 6 -10 89 -9 104 0 7 4 14 4 16 0 3 -5 63 -7 134 -5
70 1 133 3 138 3 6 0 30 -1 55 -2 25 -2 51 0 57 4 5 3 13 4 16 1 3 -4 45 -8
94 -10 52 -2 126 -14 183 -29 52 -14 102 -27 112 -29 9 -3 45 -16 80 -31 34
-15 69 -27 76 -27 6 -1 12 -6 12 -11 0 -6 3 -7 6 -4 4 4 19 -2 33 -12 14 -9
41 -23 59 -30 17 -8 32 -17 32 -22 0 -5 5 -9 11 -9 10 0 84 -48 122 -80 53
-43 113 -98 131 -119 12 -13 32 -36 45 -50 102 -113 188 -275 237 -451 32
-111 38 -160 38 -310 1 -114 -2 -144 -19 -235 -22 -115 -81 -273 -130 -346
-14 -21 -25 -41 -25 -44 0 -11 -108 -149 -152 -195 -86 -90 -270 -227 -331
-246 -12 -4 -24 -10 -27 -13 -3 -4 -34 -18 -70 -31 -36 -13 -69 -26 -75 -30
-9 -6 -106 -35 -156 -46 -68 -15 -101 -21 -159 -31 -60 -9 -739 -11 -767 -1
-12 4 -24 4 -27 0 -2 -4 -33 -6 -68 -4 -34 1 -74 2 -88 1 -14 0 -29 -1 -35 0
-5 0 -318 2 -695 6 -657 5 -881 7 -2605 20 -424 4 -1000 8 -1282 9 -281 2
-516 7 -521 10 -6 3 -13 2 -16 -3 -4 -6 -18 -6 -36 -1 -17 5 -30 5 -30 1 0 -4
-9 -7 -20 -7 -22 1 -18 7 -190 -319 -34 -66 -83 -158 -108 -205 -79 -150 -133
-253 -181 -345 -25 -49 -49 -91 -53 -93 -5 -2 -8 -8 -8 -12 0 -12 6918 -11
6990 1 30 5 74 11 98 14 24 2 47 7 51 9 4 3 23 8 42 11 65 12 194 47 207 57 6
6 12 8 12 4 0 -4 14 0 30 9 17 9 30 13 30 11 0 -5 141 55 220 93 400 193 740
528 950 936 75 145 152 343 174 445 3 14 10 43 15 65 28 116 39 197 46 360 2
66 5 122 6 125 1 3 1 9 0 14 -1 5 -4 36 -6 70 -8 143 -32 274 -80 441 -10 33
-20 65 -24 70 -3 6 -6 12 -7 15 -2 10 -17 46 -43 105 -15 33 -34 75 -42 93 -7
17 -17 32 -21 32 -5 0 -8 6 -8 13 0 7 -6 19 -12 25 -7 7 -13 16 -13 20 -1 13
-39 72 -47 72 -4 0 -8 6 -8 13 0 7 -8 22 -17 33 -10 10 -37 44 -60 74 -23 31
-65 79 -93 107 -27 28 -50 53 -50 56 0 3 125 4 278 4 l277 -2 -3 474 c-1 261
-5 477 -8 480 -3 3 -483 7 -1067 8 -584 1 -1064 3 -1067 4 -3 1 -9 0 -15 -1
-22 -5 -103 -2 -113 4 -6 3 -13 2 -17 -4 -4 -6 -10 -8 -14 -6 -4 3 -86 5 -182
5 -96 0 -194 1 -219 2 -25 1 -52 1 -60 0 -8 -1 -33 -1 -55 0 -22 0 -678 1
-1457 3 l-1418 3 -1 -41z"/>
</g>
</svg>
